<svg id="Camada_1" data-name="Camada 1" xmlns="http://www.w3.org/2000/svg" viewBox="0 0 158.8839 36.00049"><path d="M683.42677,402.76587l6.32364-9.82056-6.32364-9.82055h6.2497l6.32364,9.82055-6.32364,9.82056Zm-13.39215,3.5708,8.56946-13.39136-8.56946-13.39209h7.57553l8.56943,13.39209-8.56943,13.39136Zm-16.97174,2.81226,11.31745-16.137h.08355l-10.42474-16.13672h8.32358L672.78746,393.012l-10.42474,16.137Z" transform="translate(-537.11621 -373.14844)" style="fill:#fff"/><path d="M543.84424,399.07422V381.96387h-6.728v-3.18946H554.3418v3.18946h-6.728v17.11035Z" transform="translate(-537.11621 -373.14844)" style="fill:#fff"/><path d="M553.29785,399.07422l9.13526-20.29981H566.145l9.16406,20.29981h-3.94433l-7.85889-18.29883h1.50781l-7.82959,18.29883Zm4.20508-4.69824,1.01514-2.958H569.48l1.01465,2.958Zm4.3501-17.25489,3.915-3.97265h4.26269l-5.0459,3.97265Z" transform="translate(-537.11621 -373.14844)" style="fill:#fff"/><path d="M580.99316,399.07422V381.96387h-6.728v-3.18946h17.22558v3.18946h-6.728v17.11035Z" transform="translate(-537.11621 -373.14844)" style="fill:#fff"/><path d="M594.33252,399.07422V378.77441h3.77v20.29981Z" transform="translate(-537.11621 -373.14844)" style="fill:#fff"/><path d="M612.97949,399.36426a11.847,11.847,0,0,1-4.30664-.76856,10.26283,10.26283,0,0,1-3.45117-2.1748,9.92687,9.92687,0,0,1-2.27637-3.32031,11.14555,11.14555,0,0,1,0-8.35254,9.82529,9.82529,0,0,1,2.291-3.32032,10.47513,10.47513,0,0,1,3.45117-2.1748,12.53778,12.53778,0,0,1,8.874.08691,9.02183,9.02183,0,0,1,3.48,2.53711l-2.436,2.291a7.135,7.135,0,0,0-5.42285-2.37793,7.84348,7.84348,0,0,0-2.91455.52246,6.69462,6.69462,0,0,0-3.79932,3.74023,7.95574,7.95574,0,0,0,0,5.74219,6.69232,6.69232,0,0,0,3.79932,3.74121,7.86309,7.86309,0,0,0,2.91455.52246,7.31818,7.31818,0,0,0,2.958-.59472,7.21642,7.21642,0,0,0,2.46484-1.8125l2.436,2.32031a9.295,9.295,0,0,1-3.48,2.52246A11.66028,11.66028,0,0,1,612.97949,399.36426Z" transform="translate(-537.11621 -373.14844)" style="fill:#fff"/><path d="M633.74365,399.36426a11.90531,11.90531,0,0,1-4.3789-.78321,10.57054,10.57054,0,0,1-3.48-2.18945,9.853,9.853,0,0,1-2.291-3.30566,11.07033,11.07033,0,0,1,0-8.32324,9.86273,9.86273,0,0,1,2.291-3.30567,10.58652,10.58652,0,0,1,3.48-2.18945,12.51306,12.51306,0,0,1,8.71484,0,10.62249,10.62249,0,0,1,3.46533,2.18945,9.86977,9.86977,0,0,1,2.291,3.30567,10.48292,10.48292,0,0,1,.812,4.16113,10.59069,10.59069,0,0,1-.812,4.17676,9.67866,9.67866,0,0,1-2.291,3.30566,10.75007,10.75007,0,0,1-3.46533,2.1748A11.71322,11.71322,0,0,1,633.74365,399.36426Zm-.02881-3.30567a7.58848,7.58848,0,0,0,2.8418-.52246,6.54973,6.54973,0,0,0,2.26221-1.49316,7.032,7.032,0,0,0,1.49365-2.2627,7.87749,7.87749,0,0,0,0-5.71289,7.05972,7.05972,0,0,0-1.49365-2.26172,6.54987,6.54987,0,0,0-2.26221-1.49316,7.56934,7.56934,0,0,0-2.8418-.52246,7.4597,7.4597,0,0,0-2.82763.52246,6.73112,6.73112,0,0,0-2.26172,1.49316,6.94183,6.94183,0,0,0-1.5083,2.26172,7.84094,7.84094,0,0,0,0,5.69922,7.0082,7.0082,0,0,0,1.49365,2.27637,6.54964,6.54964,0,0,0,2.26221,1.49316A7.58664,7.58664,0,0,0,633.71484,396.05859Z" transform="translate(-537.11621 -373.14844)" style="fill:#fff"/><path d="M543.93311,408.10449a1.57057,1.57057,0,0,1-.4712-.07031,1.056,1.056,0,0,1-.35693-.18164l.13525-.30371a1.07807,1.07807,0,0,0,.31153.165,1.13373,1.13373,0,0,0,.38135.0664.81052.81052,0,0,0,.26709-.03613.31635.31635,0,0,0,.1499-.09766.22106.22106,0,0,0,.04785-.13964.19316.19316,0,0,0-.06885-.1543.51353.51353,0,0,0-.17871-.09277q-.10913-.03516-.24268-.06446-.134-.03077-.26708-.07031a1.13164,1.13164,0,0,1-.24317-.10547.531.531,0,0,1-.17822-.17187.50219.50219,0,0,1-.06934-.27637.56712.56712,0,0,1,.0918-.31348.634.634,0,0,1,.27881-.22851,1.15639,1.15639,0,0,1,.47558-.085,1.4846,1.4846,0,0,1,.375.04785,1.09706,1.09706,0,0,1,.32373.13769l-.123.30371a1.142,1.142,0,0,0-.291-.125,1.08484,1.08484,0,0,0-.2876-.04.72854.72854,0,0,0-.26269.03907.31529.31529,0,0,0-.147.10156.23378.23378,0,0,0-.04639.14355.19563.19563,0,0,0,.06738.15528.46656.46656,0,0,0,.17725.09082q.10913.03369.24414.06445c.09033.02149.17969.04492.26855.07129a1.08813,1.08813,0,0,1,.24317.10156.49807.49807,0,0,1,.17676.1709.509.509,0,0,1,.06787.27344.56705.56705,0,0,1-.0918.31055.62772.62772,0,0,1-.28027.22753A1.15,1.15,0,0,1,543.93311,408.10449Z" transform="translate(-537.11621 -373.14844)" style="fill:#fff"/><path d="M546.30322,408.10449a1.23982,1.23982,0,0,1-.45312-.08105,1.11052,1.11052,0,0,1-.35987-.22656,1.01974,1.01974,0,0,1-.2373-.3418,1.14625,1.14625,0,0,1,0-.86133,1.01974,1.01974,0,0,1,.2373-.3418,1.07855,1.07855,0,0,1,.35987-.22656,1.29353,1.29353,0,0,1,.90136,0,1.084,1.084,0,0,1,.35889.22656,1.02551,1.02551,0,0,1,.23682.3418,1.14874,1.14874,0,0,1,0,.8623,1.00612,1.00612,0,0,1-.23682.3418,1.11386,1.11386,0,0,1-.35889.22559A1.2155,1.2155,0,0,1,546.30322,408.10449Zm-.00293-.34179a.78327.78327,0,0,0,.29395-.05469.674.674,0,0,0,.23389-.1543.71976.71976,0,0,0,.15429-.23437.81162.81162,0,0,0,0-.59082.71546.71546,0,0,0-.15429-.2334.67643.67643,0,0,0-.23389-.15528.80271.80271,0,0,0-.29395-.05371.78742.78742,0,0,0-.29248.05371.69713.69713,0,0,0-.23437.15528.7115.7115,0,0,0-.15576.2334.809.809,0,0,0,0,.58984.73185.73185,0,0,0,.15429.23535.67145.67145,0,0,0,.23438.1543A.77959.77959,0,0,0,546.30029,407.7627Z" transform="translate(-537.11621 -373.14844)" style="fill:#fff"/><path d="M547.99512,408.07422v-2.09961h.38965v1.76953h1.09814v.33008Z" transform="translate(-537.11621 -373.14844)" style="fill:#fff"/><path d="M550.81494,408.10449a.91781.91781,0,0,1-.67676-.24316.94957.94957,0,0,1-.24414-.70215v-1.18457h.38965v1.16992a.6679.6679,0,0,0,.13965.4707.59953.59953,0,0,0,.7876,0,.67271.67271,0,0,0,.13818-.4707v-1.16992h.38379v1.18457a.94774.94774,0,0,1-.24463.70215A.91255.91255,0,0,1,550.81494,408.10449Z" transform="translate(-537.11621 -373.14844)" style="fill:#fff"/><path d="M553.40088,408.10449a1.20682,1.20682,0,0,1-.44531-.08008,1.056,1.056,0,0,1-.35694-.22461,1.02818,1.02818,0,0,1-.23584-.34375,1.15375,1.15375,0,0,1,0-.86425,1.01417,1.01417,0,0,1,.23731-.34278,1.08292,1.08292,0,0,1,.35693-.22558,1.22549,1.22549,0,0,1,.44678-.0791,1.20575,1.20575,0,0,1,.47119.08886.93456.93456,0,0,1,.35986.26172l-.252.23731a.73736.73736,0,0,0-.561-.2461.829.829,0,0,0-.30127.05371.69151.69151,0,0,0-.39307.3877.81955.81955,0,0,0,0,.59375.68613.68613,0,0,0,.39307.38672.80891.80891,0,0,0,.30127.05469.75869.75869,0,0,0,.30615-.06153.74892.74892,0,0,0,.25488-.1875l.252.23926a.96549.96549,0,0,1-.35986.26172A1.21377,1.21377,0,0,1,553.40088,408.10449Zm-.14111.65332a.66032.66032,0,0,1-.14991-.01562.60088.60088,0,0,1-.126-.04688l.06884-.17676a.55033.55033,0,0,0,.09766.03614.46189.46189,0,0,0,.10645.01172.19079.19079,0,0,0,.123-.03028.09637.09637,0,0,0,.03614-.07812.0856.0856,0,0,0-.0376-.07227.21577.21577,0,0,0-.12158-.02636h-.09278l.08106-.30665h.20361l-.042.16895a.30146.30146,0,0,1,.19678.085.24975.24975,0,0,1-.04639.375A.51814.51814,0,0,1,553.25977,408.75781Z" transform="translate(-537.11621 -373.14844)" style="fill:#fff"/><path d="M555.69922,408.10449a1.23991,1.23991,0,0,1-.45313-.08105,1.11048,1.11048,0,0,1-.35986-.22656,1.01974,1.01974,0,0,1-.2373-.3418,1.14613,1.14613,0,0,1,0-.86133,1.01974,1.01974,0,0,1,.2373-.3418,1.0785,1.0785,0,0,1,.35986-.22656,1.29356,1.29356,0,0,1,.90137,0,1.084,1.084,0,0,1,.35889.22656,1.02548,1.02548,0,0,1,.23681.3418,1.14862,1.14862,0,0,1,0,.8623,1.0061,1.0061,0,0,1-.23681.3418,1.11386,1.11386,0,0,1-.35889.22559A1.21554,1.21554,0,0,1,555.69922,408.10449Zm-.00293-.34179a.78321.78321,0,0,0,.29394-.05469.67389.67389,0,0,0,.23389-.1543.71963.71963,0,0,0,.1543-.23437.81176.81176,0,0,0,0-.59082.71532.71532,0,0,0-.1543-.2334.67633.67633,0,0,0-.23389-.15528.80265.80265,0,0,0-.29394-.05371.78739.78739,0,0,0-.29248.05371.69717.69717,0,0,0-.23438.15528.71166.71166,0,0,0-.15576.2334.80915.80915,0,0,0,0,.58984.73188.73188,0,0,0,.1543.23535.67141.67141,0,0,0,.23437.1543A.77964.77964,0,0,0,555.69629,407.7627Zm.21582-1.96a.2868.2868,0,0,1-.13037-.02832.474.474,0,0,1-.105-.06836c-.03125-.02734-.06055-.05078-.08887-.07128a.14484.14484,0,0,0-.084-.0293.12339.12339,0,0,0-.10157.04785.23215.23215,0,0,0-.04541.13184h-.20068a.48658.48658,0,0,1,.09131-.29395.28077.28077,0,0,1,.23242-.1084.29764.29764,0,0,1,.13232.03028.57051.57051,0,0,1,.10645.06933c.03076.02539.06055.04883.08838.06836a.13734.13734,0,0,0,.08105.03027.13189.13189,0,0,0,.10352-.04492.1946.1946,0,0,0,.04346-.126h.20117a.4545.4545,0,0,1-.09033.2832A.28233.28233,0,0,1,555.91211,405.80273Z" transform="translate(-537.11621 -373.14844)" style="fill:#fff"/><path d="M557.78076,407.74707h1.18506v.32715h-1.57471v-2.09961h1.53272v.32617h-1.14307Zm-.02978-.89941h1.04394v.32031H557.751Z" transform="translate(-537.11621 -373.14844)" style="fill:#fff"/><path d="M560.20215,408.10449a1.5705,1.5705,0,0,1-.47119-.07031,1.056,1.056,0,0,1-.35694-.18164l.13526-.30371a1.078,1.078,0,0,0,.31152.165,1.13377,1.13377,0,0,0,.38135.0664.81052.81052,0,0,0,.26709-.03613.31635.31635,0,0,0,.1499-.09766.22106.22106,0,0,0,.04785-.13964.19316.19316,0,0,0-.06885-.1543.51335.51335,0,0,0-.17871-.09277q-.10913-.03516-.24267-.06446-.134-.03077-.26709-.07031a1.13185,1.13185,0,0,1-.24317-.10547.531.531,0,0,1-.17822-.17187.50219.50219,0,0,1-.06933-.27637.5672.5672,0,0,1,.09179-.31348.634.634,0,0,1,.27881-.22851,1.15641,1.15641,0,0,1,.47559-.085,1.48471,1.48471,0,0,1,.375.04785,1.09729,1.09729,0,0,1,.32373.13769l-.12305.30371a1.142,1.142,0,0,0-.291-.125,1.08477,1.08477,0,0,0-.28759-.04.7286.7286,0,0,0-.2627.03907.31534.31534,0,0,0-.147.10156.23378.23378,0,0,0-.04639.14355.19561.19561,0,0,0,.06739.15528.46651.46651,0,0,0,.17724.09082q.10914.03369.24414.06445c.09033.02149.17969.04492.26856.07129a1.08824,1.08824,0,0,1,.24316.10156.498.498,0,0,1,.17676.1709.509.509,0,0,1,.06787.27344.567.567,0,0,1-.0918.31055.62761.62761,0,0,1-.28027.22753A1.15,1.15,0,0,1,560.20215,408.10449Z" transform="translate(-537.11621 -373.14844)" style="fill:#fff"/><path d="M562.95605,407.74707h1.18506v.32715h-1.5747v-2.09961h1.53271v.32617h-1.14307Zm-.02978-.89941h1.04394v.32031h-1.04394Z" transform="translate(-537.11621 -373.14844)" style="fill:#fff"/><path d="M564.72607,408.07422v-2.09961h.32081l.918,1.53223h-.168l.90283-1.53223h.32129l.00293,2.09961h-.36914l-.00293-1.52149H566.73l-.76807,1.28125h-.17382l-.78028-1.28125h.08985v1.52149Z" transform="translate(-537.11621 -373.14844)" style="fill:#fff"/><path d="M569.7002,408.10449a1.226,1.226,0,0,1-.45166-.08008,1.0769,1.0769,0,0,1-.3584-.22461,1.01783,1.01783,0,0,1-.23731-.34375,1.15375,1.15375,0,0,1,0-.86425,1.00424,1.00424,0,0,1,.23877-.34278,1.09746,1.09746,0,0,1,.36133-.22558,1.26,1.26,0,0,1,.45312-.0791,1.27928,1.27928,0,0,1,.48145.08691.933.933,0,0,1,.36133.25488l-.24561.24024a.77751.77751,0,0,0-.5791-.24024.8675.8675,0,0,0-.30615.05371.711.711,0,0,0-.24317.15332.6951.6951,0,0,0-.15722.23438.81161.81161,0,0,0,0,.59082.70883.70883,0,0,0,.15722.23535.70008.70008,0,0,0,.24024.1543.82947.82947,0,0,0,.30615.05469.924.924,0,0,0,.30127-.04981.8145.8145,0,0,0,.27734-.167l.22217.291a1.15148,1.15148,0,0,1-.38232.2002A1.47757,1.47757,0,0,1,569.7002,408.10449Zm.45263-.31836V407h.36914v.83691Z" transform="translate(-537.11621 -373.14844)" style="fill:#fff"/><path d="M571.57471,407.74707h1.18506v.32715h-1.57471v-2.09961h1.53271v.32617h-1.14306Zm-.02979-.89941h1.04395v.32031h-1.04395Z" transform="translate(-537.11621 -373.14844)" style="fill:#fff"/><path d="M573.99609,408.10449a1.5705,1.5705,0,0,1-.47119-.07031,1.056,1.056,0,0,1-.35693-.18164l.13525-.30371a1.07807,1.07807,0,0,0,.31153.165,1.13372,1.13372,0,0,0,.38134.0664.81048.81048,0,0,0,.26709-.03613.31639.31639,0,0,0,.14991-.09766.22112.22112,0,0,0,.04785-.13964.19316.19316,0,0,0-.06885-.1543.51353.51353,0,0,0-.17871-.09277q-.10913-.03516-.24268-.06446-.134-.03077-.26709-.07031a1.13177,1.13177,0,0,1-.24316-.10547.531.531,0,0,1-.17822-.17187.50219.50219,0,0,1-.06934-.27637.56712.56712,0,0,1,.0918-.31348.634.634,0,0,1,.27881-.22851,1.15639,1.15639,0,0,1,.47558-.085,1.4846,1.4846,0,0,1,.375.04785,1.09706,1.09706,0,0,1,.32373.13769l-.123.30371a1.142,1.142,0,0,0-.291-.125,1.08484,1.08484,0,0,0-.2876-.04.7285.7285,0,0,0-.26269.03907.31537.31537,0,0,0-.147.10156.23377.23377,0,0,0-.04638.14355.19563.19563,0,0,0,.06738.15528.46648.46648,0,0,0,.17725.09082q.10912.03369.24414.06445c.09033.02149.17968.04492.26855.07129a1.08832,1.08832,0,0,1,.24317.10156.498.498,0,0,1,.17675.1709.50886.50886,0,0,1,.06787.27344.567.567,0,0,1-.09179.31055.6277.6277,0,0,1-.28028.22753A1.14992,1.14992,0,0,1,573.99609,408.10449Z" transform="translate(-537.11621 -373.14844)" style="fill:#fff"/><path d="M575.77832,408.07422v-1.76953h-.6958v-.33008h1.78174v.33008h-.6958v1.76953Z" transform="translate(-537.11621 -373.14844)" style="fill:#fff"/><path d="M576.90576,408.07422l.94531-2.09961h.38379l.94825,2.09961h-.40821l-.813-1.89258h.15577l-.80957,1.89258Zm.43506-.48633.105-.30566h1.13428l.105.30566Zm.918-1.78516a.2868.2868,0,0,1-.13037-.02832.474.474,0,0,1-.105-.06836c-.03125-.02734-.06055-.05078-.08838-.07128a.14716.14716,0,0,0-.084-.0293.12431.12431,0,0,0-.10205.04785.22847.22847,0,0,0-.04492.13184h-.20117a.48984.48984,0,0,1,.09131-.29395.28077.28077,0,0,1,.23242-.1084.29764.29764,0,0,1,.13232.03028.55516.55516,0,0,1,.10645.06933c.03076.02539.06055.04883.08838.06836a.13734.13734,0,0,0,.08105.03027.13189.13189,0,0,0,.10352-.04492.1946.1946,0,0,0,.04346-.126h.20117a.45158.45158,0,0,1-.09033.2832A.2817.2817,0,0,1,578.25879,405.80273Z" transform="translate(-537.11621 -373.14844)" style="fill:#fff"/><path d="M580.5542,408.10449a1.23991,1.23991,0,0,1-.45313-.08105,1.11048,1.11048,0,0,1-.35986-.22656,1.01974,1.01974,0,0,1-.2373-.3418,1.14613,1.14613,0,0,1,0-.86133,1.01974,1.01974,0,0,1,.2373-.3418,1.0785,1.0785,0,0,1,.35986-.22656,1.29356,1.29356,0,0,1,.90137,0,1.084,1.084,0,0,1,.35889.22656,1.02548,1.02548,0,0,1,.23681.3418,1.14862,1.14862,0,0,1,0,.8623,1.0061,1.0061,0,0,1-.23681.3418,1.11386,1.11386,0,0,1-.35889.22559A1.21554,1.21554,0,0,1,580.5542,408.10449Zm-.00293-.34179a.78321.78321,0,0,0,.29394-.05469.67389.67389,0,0,0,.23389-.1543.71963.71963,0,0,0,.1543-.23437.81176.81176,0,0,0,0-.59082.71532.71532,0,0,0-.1543-.2334.67633.67633,0,0,0-.23389-.15528.80265.80265,0,0,0-.29394-.05371.78739.78739,0,0,0-.29248.05371.69717.69717,0,0,0-.23438.15528.71166.71166,0,0,0-.15576.2334.80915.80915,0,0,0,0,.58984.73188.73188,0,0,0,.1543.23535.67141.67141,0,0,0,.23437.1543A.77964.77964,0,0,0,580.55127,407.7627Z" transform="translate(-537.11621 -373.14844)" style="fill:#fff"/><path d="M583.22412,408.07422v-2.09961h.918a1.29918,1.29918,0,0,1,.59961.13184.98783.98783,0,0,1,.40234.36621,1.12686,1.12686,0,0,1,0,1.10254.99.99,0,0,1-.40234.36718,1.29931,1.29931,0,0,1-.59961.13184Zm.38965-.33008h.51025a.87827.87827,0,0,0,.40918-.08984.65545.65545,0,0,0,.26709-.252.80514.80514,0,0,0,0-.75781.651.651,0,0,0-.26709-.25.86636.86636,0,0,0-.40918-.08984h-.51025Z" transform="translate(-537.11621 -373.14844)" style="fill:#fff"/><path d="M586.24219,407.74707h1.18506v.32715h-1.57471v-2.09961h1.53271v.32617h-1.14306Zm-.02979-.89941h1.04395v.32031H586.2124Z" transform="translate(-537.11621 -373.14844)" style="fill:#fff"/><path d="M589.37988,407.74707h1.18506v.32715h-1.57471v-2.09961H590.523v.32617h-1.14307Zm-.02978-.89941H590.394v.32031H589.3501Z" transform="translate(-537.11621 -373.14844)" style="fill:#fff"/><path d="M591.15039,408.07422v-2.09961h.3208l.918,1.53223h-.168l.90283-1.53223h.32129l.00293,2.09961h-.36914l-.00293-1.52149h.07813l-.76807,1.28125h-.17383l-.78027-1.28125h.08984v1.52149Z" transform="translate(-537.11621 -373.14844)" style="fill:#fff"/><path d="M594.165,408.07422v-2.09961h.86377a1.14836,1.14836,0,0,1,.47851.08984.69152.69152,0,0,1,.30762.25782.79133.79133,0,0,1,0,.79785.69156.69156,0,0,1-.30762.25781,1.1482,1.1482,0,0,1-.47851.08984h-.648l.17383-.18261v.78906Zm.38965-.74707-.17383-.18848h.62988a.59134.59134,0,0,0,.38867-.11035.42923.42923,0,0,0,0-.61621.59706.59706,0,0,0-.38867-.10742h-.62988l.17383-.19239Z" transform="translate(-537.11621 -373.14844)" style="fill:#fff"/><path d="M596.46338,408.07422v-2.09961h.86377a1.14836,1.14836,0,0,1,.47851.08984.69152.69152,0,0,1,.30762.25782.78952.78952,0,0,1,0,.79687.69841.69841,0,0,1-.30762.25488,1.18107,1.18107,0,0,1-.47851.08789h-.64795l.17383-.17675v.78906Zm.38965-.74707-.17383-.18555h.62988a.58585.58585,0,0,0,.38867-.11133.3836.3836,0,0,0,.13038-.30859.379.379,0,0,0-.13038-.30957.59706.59706,0,0,0-.38867-.10742h-.62988l.17383-.19239Zm.98388.74707-.53076-.76172h.417l.53418.76172Z" transform="translate(-537.11621 -373.14844)" style="fill:#fff"/><path d="M599.1958,407.74707h1.18506v.32715h-1.57471v-2.09961h1.53272v.32617H599.1958Zm-.02978-.89941H600.21v.32031H599.166Z" transform="translate(-537.11621 -373.14844)" style="fill:#fff"/><path d="M601.356,407.74707H602.541v.32715h-1.57471v-2.09961H602.499v.32617H601.356Zm-.02979-.89941h1.04395v.32031h-1.04395Z" transform="translate(-537.11621 -373.14844)" style="fill:#fff"/><path d="M603.126,408.07422v-2.09961h.3208l1.31689,1.61621H604.605v-1.61621h.38672v2.09961h-.3208l-1.31738-1.61719h.15918v1.61719Z" transform="translate(-537.11621 -373.14844)" style="fill:#fff"/><path d="M605.70605,408.07422v-2.09961h.918a1.29916,1.29916,0,0,1,.59961.13184.9878.9878,0,0,1,.40235.36621,1.12693,1.12693,0,0,1,0,1.10254.99.99,0,0,1-.40235.36718,1.29928,1.29928,0,0,1-.59961.13184Zm.38965-.33008h.51026a.87832.87832,0,0,0,.40918-.08984.65551.65551,0,0,0,.26709-.252.80522.80522,0,0,0,0-.75781.65108.65108,0,0,0-.26709-.25.86642.86642,0,0,0-.40918-.08984h-.51026Z" transform="translate(-537.11621 -373.14844)" style="fill:#fff"/><path d="M608.334,408.07422v-2.09961h.38965v2.09961Z" transform="translate(-537.11621 -373.14844)" style="fill:#fff"/><path d="M609.44141,408.07422v-2.09961h.3208l.918,1.53223h-.168l.90283-1.53223h.32129l.00293,2.09961h-.36914l-.00293-1.52149h.07812l-.76806,1.28125h-.17383l-.78028-1.28125h.08985v1.52149Z" transform="translate(-537.11621 -373.14844)" style="fill:#fff"/><path d="M612.8457,407.74707h1.18506v.32715h-1.57471v-2.09961h1.53272v.32617H612.8457Zm-.02978-.89941h1.04394v.32031h-1.04394Z" transform="translate(-537.11621 -373.14844)" style="fill:#fff"/><path d="M614.61621,408.07422v-2.09961h.3208l1.3169,1.61621h-.1587v-1.61621h.38672v2.09961h-.3208l-1.31738-1.61719h.15918v1.61719Z" transform="translate(-537.11621 -373.14844)" style="fill:#fff"/><path d="M617.62207,408.07422v-1.76953h-.6958v-.33008H618.708v.33008h-.6958v1.76953Z" transform="translate(-537.11621 -373.14844)" style="fill:#fff"/><path d="M620.106,408.10449a1.23987,1.23987,0,0,1-.45313-.08105,1.11048,1.11048,0,0,1-.35986-.22656,1.01991,1.01991,0,0,1-.23731-.3418,1.14625,1.14625,0,0,1,0-.86133,1.01991,1.01991,0,0,1,.23731-.3418,1.0785,1.0785,0,0,1,.35986-.22656,1.29356,1.29356,0,0,1,.90137,0,1.084,1.084,0,0,1,.35889.22656,1.02548,1.02548,0,0,1,.23681.3418,1.14862,1.14862,0,0,1,0,.8623,1.0061,1.0061,0,0,1-.23681.3418,1.11386,1.11386,0,0,1-.35889.22559A1.21554,1.21554,0,0,1,620.106,408.10449Zm-.00293-.34179a.78325.78325,0,0,0,.29394-.05469.67389.67389,0,0,0,.23389-.1543.71963.71963,0,0,0,.1543-.23437.81176.81176,0,0,0,0-.59082.71532.71532,0,0,0-.1543-.2334.67633.67633,0,0,0-.23389-.15528.80269.80269,0,0,0-.29394-.05371.78735.78735,0,0,0-.29248.05371.69707.69707,0,0,0-.23438.15528.71166.71166,0,0,0-.15576.2334.80915.80915,0,0,0,0,.58984.73188.73188,0,0,0,.1543.23535.67141.67141,0,0,0,.23437.1543A.77964.77964,0,0,0,620.103,407.7627Z" transform="translate(-537.11621 -373.14844)" style="fill:#fff"/><path d="M622.44922,408.10449a1.5705,1.5705,0,0,1-.47119-.07031,1.05605,1.05605,0,0,1-.35694-.18164l.13526-.30371a1.078,1.078,0,0,0,.31152.165,1.13377,1.13377,0,0,0,.38135.0664.81052.81052,0,0,0,.26709-.03613.31635.31635,0,0,0,.1499-.09766.22106.22106,0,0,0,.04785-.13964.19316.19316,0,0,0-.06885-.1543.51335.51335,0,0,0-.17871-.09277q-.10913-.03516-.24267-.06446-.134-.03077-.26709-.07031a1.13185,1.13185,0,0,1-.24317-.10547.531.531,0,0,1-.17822-.17187.50219.50219,0,0,1-.06933-.27637.5672.5672,0,0,1,.09179-.31348.634.634,0,0,1,.27881-.22851,1.15641,1.15641,0,0,1,.47559-.085,1.48471,1.48471,0,0,1,.375.04785,1.09729,1.09729,0,0,1,.32373.13769l-.12305.30371a1.14207,1.14207,0,0,0-.291-.125,1.08489,1.08489,0,0,0-.2876-.04.7286.7286,0,0,0-.2627.03907.31534.31534,0,0,0-.147.10156.23378.23378,0,0,0-.04639.14355.19561.19561,0,0,0,.06739.15528.46651.46651,0,0,0,.17724.09082q.10914.03369.24414.06445c.09033.02149.17969.04492.26856.07129a1.08824,1.08824,0,0,1,.24316.10156.498.498,0,0,1,.17676.1709.509.509,0,0,1,.06787.27344.567.567,0,0,1-.0918.31055.62761.62761,0,0,1-.28027.22753A1.15,1.15,0,0,1,622.44922,408.10449Z" transform="translate(-537.11621 -373.14844)" style="fill:#fff"/></svg>